<svg width="20" height="19" viewBox="0 0 20 19" fill="none" xmlns="http://www.w3.org/2000/svg">
<mask id="path-1-inside-1_895_84" fill="white">
<path d="M17.827 0.187134H15.9645V2.04969C15.9645 2.4222 15.654 2.67054 15.3436 2.67054C15.0332 2.67054 14.7228 2.4222 14.7228 2.04969V0.187134H4.78915V2.04969C4.78915 2.4222 4.47872 2.67054 4.16829 2.67054C3.85787 2.67054 3.54744 2.4222 3.54744 2.04969V0.187134H1.68489C0.753615 0.187134 0.0706787 0.99424 0.0706787 2.04969V4.28475H19.9379V2.04969C19.9379 0.99424 18.8204 0.187134 17.827 0.187134ZM0.0706787 5.58854V16.9501C0.0706787 18.0676 0.753615 18.8127 1.74698 18.8127H17.8891C18.8825 18.8127 20 18.0056 20 16.9501V5.58854H0.0706787ZM5.59625 16.0188H4.10621C3.85787 16.0188 3.60953 15.8326 3.60953 15.5222V13.97C3.60953 13.7217 3.79578 13.4733 4.10621 13.4733H5.65834C5.90668 13.4733 6.15502 13.6596 6.15502 13.97V15.5222C6.09293 15.8326 5.90668 16.0188 5.59625 16.0188ZM5.59625 10.4312H4.10621C3.85787 10.4312 3.60953 10.2449 3.60953 9.93449V8.38237C3.60953 8.13402 3.79578 7.88568 4.10621 7.88568H5.65834C5.90668 7.88568 6.15502 8.07194 6.15502 8.38237V9.93449C6.09293 10.2449 5.90668 10.4312 5.59625 10.4312ZM10.5631 16.0188H9.01093C8.76259 16.0188 8.51425 15.8326 8.51425 15.5222V13.97C8.51425 13.7217 8.70051 13.4733 9.01093 13.4733H10.5631C10.8114 13.4733 11.0597 13.6596 11.0597 13.97V15.5222C11.0597 15.8326 10.8735 16.0188 10.5631 16.0188ZM10.5631 10.4312H9.01093C8.76259 10.4312 8.51425 10.2449 8.51425 9.93449V8.38237C8.51425 8.13402 8.70051 7.88568 9.01093 7.88568H10.5631C10.8114 7.88568 11.0597 8.07194 11.0597 8.38237V9.93449C11.0597 10.2449 10.8735 10.4312 10.5631 10.4312ZM15.5299 16.0188H13.9777C13.7294 16.0188 13.4811 15.8326 13.4811 15.5222V13.97C13.4811 13.7217 13.6673 13.4733 13.9777 13.4733H15.5299C15.7782 13.4733 16.0265 13.6596 16.0265 13.97V15.5222C16.0265 15.8326 15.8403 16.0188 15.5299 16.0188ZM15.5299 10.4312H13.9777C13.7294 10.4312 13.4811 10.2449 13.4811 9.93449V8.38237C13.4811 8.13402 13.6673 7.88568 13.9777 7.88568H15.5299C15.7782 7.88568 16.0265 8.07194 16.0265 8.38237V9.93449C16.0265 10.2449 15.8403 10.4312 15.5299 10.4312Z"/>
</mask>
<path d="M17.827 0.187134H15.9645V2.04969C15.9645 2.4222 15.654 2.67054 15.3436 2.67054C15.0332 2.67054 14.7228 2.4222 14.7228 2.04969V0.187134H4.78915V2.04969C4.78915 2.4222 4.47872 2.67054 4.16829 2.67054C3.85787 2.67054 3.54744 2.4222 3.54744 2.04969V0.187134H1.68489C0.753615 0.187134 0.0706787 0.99424 0.0706787 2.04969V4.28475H19.9379V2.04969C19.9379 0.99424 18.8204 0.187134 17.827 0.187134ZM0.0706787 5.58854V16.9501C0.0706787 18.0676 0.753615 18.8127 1.74698 18.8127H17.8891C18.8825 18.8127 20 18.0056 20 16.9501V5.58854H0.0706787ZM5.59625 16.0188H4.10621C3.85787 16.0188 3.60953 15.8326 3.60953 15.5222V13.97C3.60953 13.7217 3.79578 13.4733 4.10621 13.4733H5.65834C5.90668 13.4733 6.15502 13.6596 6.15502 13.97V15.5222C6.09293 15.8326 5.90668 16.0188 5.59625 16.0188ZM5.59625 10.4312H4.10621C3.85787 10.4312 3.60953 10.2449 3.60953 9.93449V8.38237C3.60953 8.13402 3.79578 7.88568 4.10621 7.88568H5.65834C5.90668 7.88568 6.15502 8.07194 6.15502 8.38237V9.93449C6.09293 10.2449 5.90668 10.4312 5.59625 10.4312ZM10.5631 16.0188H9.01093C8.76259 16.0188 8.51425 15.8326 8.51425 15.5222V13.97C8.51425 13.7217 8.70051 13.4733 9.01093 13.4733H10.5631C10.8114 13.4733 11.0597 13.6596 11.0597 13.97V15.5222C11.0597 15.8326 10.8735 16.0188 10.5631 16.0188ZM10.5631 10.4312H9.01093C8.76259 10.4312 8.51425 10.2449 8.51425 9.93449V8.38237C8.51425 8.13402 8.70051 7.88568 9.01093 7.88568H10.5631C10.8114 7.88568 11.0597 8.07194 11.0597 8.38237V9.93449C11.0597 10.2449 10.8735 10.4312 10.5631 10.4312ZM15.5299 16.0188H13.9777C13.7294 16.0188 13.4811 15.8326 13.4811 15.5222V13.97C13.4811 13.7217 13.6673 13.4733 13.9777 13.4733H15.5299C15.7782 13.4733 16.0265 13.6596 16.0265 13.97V15.5222C16.0265 15.8326 15.8403 16.0188 15.5299 16.0188ZM15.5299 10.4312H13.9777C13.7294 10.4312 13.4811 10.2449 13.4811 9.93449V8.38237C13.4811 8.13402 13.6673 7.88568 13.9777 7.88568H15.5299C15.7782 7.88568 16.0265 8.07194 16.0265 8.38237V9.93449C16.0265 10.2449 15.8403 10.4312 15.5299 10.4312Z" fill="#1C1C1E"/>
<path d="M15.9645 0.187134V-14.8717H0.905637V0.187134H15.9645ZM14.7228 0.187134H29.7816V-14.8717H14.7228V0.187134ZM4.78915 0.187134V-14.8717H-10.2697V0.187134H4.78915ZM3.54744 0.187134H18.6063V-14.8717H3.54744V0.187134ZM0.0706787 4.28475H-14.9881V19.3436H0.0706787V4.28475ZM19.9379 4.28475V19.3436H34.9967V4.28475H19.9379ZM0.0706787 5.58854V-9.47029H-14.9881V5.58854H0.0706787ZM20 5.58854H35.0588V-9.47029H20V5.58854ZM6.15502 15.5222L20.9214 18.4754L21.2138 17.0133V15.5222H6.15502ZM6.15502 9.93449L20.9214 12.8878L21.2138 11.4256V9.93449H6.15502ZM17.827 0.187134V-14.8717H15.9645V0.187134V15.246H17.827V0.187134ZM15.9645 0.187134H0.905637V2.04969H15.9645H31.0233V0.187134H15.9645ZM15.9645 2.04969H0.905637C0.905637 -6.85626 8.33271 -12.3883 15.3436 -12.3883V2.67054V17.7294C22.9754 17.7294 31.0233 11.7007 31.0233 2.04969H15.9645ZM15.3436 2.67054V-12.3883C22.3545 -12.3883 29.7816 -6.85626 29.7816 2.04969H14.7228H-0.336064C-0.336064 11.7007 7.71186 17.7294 15.3436 17.7294V2.67054ZM14.7228 2.04969H29.7816V0.187134H14.7228H-0.336064V2.04969H14.7228ZM14.7228 0.187134V-14.8717H4.78915V0.187134V15.246H14.7228V0.187134ZM4.78915 0.187134H-10.2697V2.04969H4.78915H19.848V0.187134H4.78915ZM4.78915 2.04969H-10.2697C-10.2697 -6.85627 -2.8426 -12.3883 4.16829 -12.3883V2.67054V17.7294C11.8 17.7294 19.848 11.7007 19.848 2.04969H4.78915ZM4.16829 2.67054V-12.3883C11.1792 -12.3883 18.6063 -6.85626 18.6063 2.04969H3.54744H-11.5114C-11.5114 11.7007 -3.46346 17.7294 4.16829 17.7294V2.67054ZM3.54744 2.04969H18.6063V0.187134H3.54744H-11.5114V2.04969H3.54744ZM3.54744 0.187134V-14.8717H1.68489V0.187134V15.246H3.54744V0.187134ZM1.68489 0.187134V-14.8717C-9.60729 -14.8717 -14.9881 -5.11932 -14.9881 2.04969H0.0706787H15.1295C15.1295 4.73141 14.2528 7.86064 11.9433 10.5446C9.53586 13.3425 5.85371 15.246 1.68489 15.246V0.187134ZM0.0706787 2.04969H-14.9881V4.28475H0.0706787H15.1295V2.04969H0.0706787ZM0.0706787 4.28475V19.3436H19.9379V4.28475V-10.7741H0.0706787V4.28475ZM19.9379 4.28475H34.9967V2.04969H19.9379H4.87908V4.28475H19.9379ZM19.9379 2.04969H34.9967C34.9967 -4.07114 31.7628 -8.47491 28.8514 -10.8824C26.0006 -13.2398 22.141 -14.8717 17.827 -14.8717V0.187134V15.246C14.5063 15.246 11.7022 14.0176 9.65852 12.3276C7.55425 10.5876 4.87908 7.11506 4.87908 2.04969H19.9379ZM0.0706787 5.58854H-14.9881V16.9501H0.0706787H15.1295V5.58854H0.0706787ZM0.0706787 16.9501H-14.9881C-14.9881 20.5567 -13.8553 24.8392 -10.6303 28.4036C-7.29484 32.0902 -2.71999 33.8715 1.74698 33.8715V18.8127V3.75384C5.22058 3.75384 8.95728 5.16258 11.703 8.19729C14.3381 11.1098 15.1295 14.461 15.1295 16.9501H0.0706787ZM1.74698 18.8127V33.8715H17.8891V18.8127V3.75384H1.74698V18.8127ZM17.8891 18.8127V33.8715C22.2031 33.8715 26.0627 32.2396 28.9135 29.8822C31.8249 27.4747 35.0588 23.0709 35.0588 16.9501H20H4.94117C4.94117 11.8847 7.61633 8.41224 9.7206 6.67217C11.7643 4.98218 14.5684 3.75384 17.8891 3.75384V18.8127ZM20 16.9501H35.0588V5.58854H20H4.94117V16.9501H20ZM20 5.58854V-9.47029H0.0706787V5.58854V20.6474H20V5.58854ZM5.59625 16.0188V0.960007H4.10621V16.0188V31.0777H5.59625V16.0188ZM4.10621 16.0188V0.960007C10.9144 0.960007 18.6684 6.30919 18.6684 15.5222H3.60953H-11.4493C-11.4493 25.356 -3.19866 31.0777 4.10621 31.0777V16.0188ZM3.60953 15.5222H18.6684V13.97H3.60953H-11.4493V15.5222H3.60953ZM3.60953 13.97H18.6684C18.6684 20.7782 13.3192 28.5322 4.10621 28.5322V13.4733V-1.58548C-5.7276 -1.58548 -11.4493 6.66516 -11.4493 13.97H3.60953ZM4.10621 13.4733V28.5322H5.65834V13.4733V-1.58548H4.10621V13.4733ZM5.65834 13.4733V28.5322C-1.1499 28.5322 -8.90381 23.1829 -8.90381 13.97H6.15502H21.2138C21.2138 4.13626 12.9633 -1.58548 5.65834 -1.58548V13.4733ZM6.15502 13.97H-8.90381V15.5222H6.15502H21.2138V13.97H6.15502ZM6.15502 15.5222L-8.61137 12.5689C-8.20606 10.5423 -7.09708 7.43559 -4.20684 4.78621C-1.12403 1.96031 2.56203 0.960007 5.59625 0.960007V16.0188V31.0777C8.9409 31.0777 12.8753 29.9842 16.1444 26.9876C19.2209 24.1675 20.454 20.8124 20.9214 18.4754L6.15502 15.5222ZM5.59625 10.4312V-4.62765H4.10621V10.4312V25.49H5.59625V10.4312ZM4.10621 10.4312V-4.62765C10.9144 -4.62765 18.6684 0.721529 18.6684 9.93449H3.60953H-11.4493C-11.4493 19.7683 -3.19866 25.49 4.10621 25.49V10.4312ZM3.60953 9.93449H18.6684V8.38237H3.60953H-11.4493V9.93449H3.60953ZM3.60953 8.38237H18.6684C18.6684 15.1906 13.3191 22.9445 4.10621 22.9445V7.88568V-7.17314C-5.72758 -7.17314 -11.4493 1.07747 -11.4493 8.38237H3.60953ZM4.10621 7.88568V22.9445H5.65834V7.88568V-7.17314H4.10621V7.88568ZM5.65834 7.88568V22.9445C-1.14987 22.9445 -8.90381 17.5953 -8.90381 8.38237H6.15502H21.2138C21.2138 -1.45143 12.9632 -7.17314 5.65834 -7.17314V7.88568ZM6.15502 8.38237H-8.90381V9.93449H6.15502H21.2138V8.38237H6.15502ZM6.15502 9.93449L-8.61137 6.98121C-8.20606 4.95462 -7.09708 1.84793 -4.20684 -0.801444C-1.12403 -3.62735 2.56203 -4.62765 5.59625 -4.62765V10.4312V25.49C8.9409 25.49 12.8753 24.3966 16.1444 21.3999C19.2209 18.5798 20.454 15.2248 20.9214 12.8878L6.15502 9.93449ZM10.5631 16.0188V0.960007H9.01093V16.0188V31.0777H10.5631V16.0188ZM9.01093 16.0188V0.960007C15.8191 0.960007 23.5731 6.30921 23.5731 15.5222H8.51425H-6.54457C-6.54457 25.3559 1.70604 31.0777 9.01093 31.0777V16.0188ZM8.51425 15.5222H23.5731V13.97H8.51425H-6.54457V15.5222H8.51425ZM8.51425 13.97H23.5731C23.5731 20.7782 18.2239 28.5322 9.01093 28.5322V13.4733V-1.58548C-0.822905 -1.58548 -6.54457 6.66518 -6.54457 13.97H8.51425ZM9.01093 13.4733V28.5322H10.5631V13.4733V-1.58548H9.01093V13.4733ZM10.5631 13.4733V28.5322C3.75485 28.5322 -3.99908 23.183 -3.99908 13.97H11.0597H26.1186C26.1186 4.13623 17.868 -1.58548 10.5631 -1.58548V13.4733ZM11.0597 13.97H-3.99908V15.5222H11.0597H26.1186V13.97H11.0597ZM11.0597 15.5222H-3.99908C-3.99908 12.6579 -3.08063 8.59893 0.27963 5.23869C3.63988 1.87845 7.69887 0.960007 10.5631 0.960007V16.0188V31.0777C13.7377 31.0777 18.045 30.0661 21.576 26.5351C25.107 23.0041 26.1186 18.6968 26.1186 15.5222H11.0597ZM10.5631 10.4312V-4.62765H9.01093V10.4312V25.49H10.5631V10.4312ZM9.01093 10.4312V-4.62765C15.8191 -4.62765 23.5731 0.72155 23.5731 9.93449H8.51425H-6.54457C-6.54457 19.7683 1.70604 25.49 9.01093 25.49V10.4312ZM8.51425 9.93449H23.5731V8.38237H8.51425H-6.54457V9.93449H8.51425ZM8.51425 8.38237H23.5731C23.5731 15.1905 18.2239 22.9445 9.01093 22.9445V7.88568V-7.17314C-0.822884 -7.17314 -6.54457 1.0775 -6.54457 8.38237H8.51425ZM9.01093 7.88568V22.9445H10.5631V7.88568V-7.17314H9.01093V7.88568ZM10.5631 7.88568V22.9445C3.75487 22.9445 -3.99908 17.5953 -3.99908 8.38237H11.0597H26.1186C26.1186 -1.45145 17.8679 -7.17314 10.5631 -7.17314V7.88568ZM11.0597 8.38237H-3.99908V9.93449H11.0597H26.1186V8.38237H11.0597ZM11.0597 9.93449H-3.99908C-3.99908 7.07027 -3.08063 3.01127 0.27963 -0.348972C3.63988 -3.70921 7.69887 -4.62765 10.5631 -4.62765V10.4312V25.49C13.7377 25.49 18.045 24.4784 21.576 20.9475C25.107 17.4165 26.1186 13.1091 26.1186 9.93449H11.0597ZM15.5299 16.0188V0.960007H13.9777V16.0188V31.0777H15.5299V16.0188ZM13.9777 16.0188V0.960007C20.7859 0.960007 28.5399 6.30921 28.5399 15.5222H13.4811H-1.57777C-1.57777 25.3559 6.67285 31.0777 13.9777 31.0777V16.0188ZM13.4811 15.5222H28.5399V13.97H13.4811H-1.57777V15.5222H13.4811ZM13.4811 13.97H28.5399C28.5399 20.7782 23.1907 28.5322 13.9777 28.5322V13.4733V-1.58548C4.1439 -1.58548 -1.57777 6.66518 -1.57777 13.97H13.4811ZM13.9777 13.4733V28.5322H15.5299V13.4733V-1.58548H13.9777V13.4733ZM15.5299 13.4733V28.5322C8.72165 28.5322 0.967723 23.183 0.967723 13.97H16.0265H31.0854C31.0854 4.13623 22.8348 -1.58548 15.5299 -1.58548V13.4733ZM16.0265 13.97H0.967723V15.5222H16.0265H31.0854V13.97H16.0265ZM16.0265 15.5222H0.967723C0.967723 12.6579 1.88618 8.59893 5.24644 5.23869C8.60669 1.87845 12.6657 0.960007 15.5299 0.960007V16.0188V31.0777C18.7045 31.0777 23.0118 30.0661 26.5428 26.5351C30.0738 23.0041 31.0854 18.6968 31.0854 15.5222H16.0265ZM15.5299 10.4312V-4.62765H13.9777V10.4312V25.49H15.5299V10.4312ZM13.9777 10.4312V-4.62765C20.7859 -4.62765 28.5399 0.72155 28.5399 9.93449H13.4811H-1.57777C-1.57777 19.7683 6.67285 25.49 13.9777 25.49V10.4312ZM13.4811 9.93449H28.5399V8.38237H13.4811H-1.57777V9.93449H13.4811ZM13.4811 8.38237H28.5399C28.5399 15.1905 23.1907 22.9445 13.9777 22.9445V7.88568V-7.17314C4.14392 -7.17314 -1.57777 1.0775 -1.57777 8.38237H13.4811ZM13.9777 7.88568V22.9445H15.5299V7.88568V-7.17314H13.9777V7.88568ZM15.5299 7.88568V22.9445C8.72168 22.9445 0.967723 17.5953 0.967723 8.38237H16.0265H31.0854C31.0854 -1.45145 22.8347 -7.17314 15.5299 -7.17314V7.88568ZM16.0265 8.38237H0.967723V9.93449H16.0265H31.0854V8.38237H16.0265ZM16.0265 9.93449H0.967723C0.967723 7.07027 1.88618 3.01127 5.24644 -0.348972C8.60669 -3.70921 12.6657 -4.62765 15.5299 -4.62765V10.4312V25.49C18.7045 25.49 23.0118 24.4784 26.5428 20.9475C30.0738 17.4165 31.0854 13.1091 31.0854 9.93449H16.0265Z" fill="#ADAEB2" mask="url(#path-1-inside-1_895_84)"/>
</svg>
